<?xml version="1.0" standalone="no"?>
<!DOCTYPE svg PUBLIC "-//W3C//DTD SVG 20010904//EN"
 "http://www.w3.org/TR/2001/REC-SVG-20010904/DTD/svg10.dtd">
<svg version="1.0" xmlns="http://www.w3.org/2000/svg"
 width="500.000000pt" height="500.000000pt" viewBox="0 0 500.000000 500.000000"
 preserveAspectRatio="xMidYMid meet">
<metadata>
Created by potrace 1.15, written by Peter Selinger 2001-2017
</metadata>
<g transform="translate(0.000000,500.000000) scale(0.100000,-0.100000)">
<path d="M40 2500 l0 -2460 2460 0 2460 0 0 2460 0 2460 -2460 0 -2460 0 0
-2460z m3333 1180 c197 -133 361 -248 363 -254 3 -7 -28 -104 -68 -217 l-73
-204 -373 -3 c-311 -2 -372 0 -372 12 0 7 29 96 65 197 36 101 65 189 65 194
-1 6 -12 18 -25 28 -22 16 -31 16 -121 3 -53 -8 -99 -18 -103 -21 -3 -4 -45
-115 -93 -248 -65 -182 -83 -245 -75 -253 7 -6 188 -118 402 -249 215 -130
396 -243 403 -249 10 -10 -23 -114 -165 -521 l-178 -509 -560 -183 c-308 -100
-568 -182 -578 -183 -22 0 -627 361 -627 374 0 6 116 339 282 809 l10 27 379
0 c274 0 379 -3 379 -11 0 -6 -47 -141 -105 -300 -58 -159 -105 -291 -105
-293 0 -3 12 -14 28 -24 l27 -20 105 43 c58 24 108 49 113 57 15 27 208 589
205 598 -2 5 -181 125 -398 266 -217 141 -401 262 -408 269 -11 10 18 102 167
520 99 279 181 508 183 510 2 1 183 34 403 72 l400 70 45 -32 c25 -17 206
-141 403 -275z"/>
</g>
</svg>
